<svg xmlns="http://www.w3.org/2000/svg" version="1.1" xmlns:xlink="http://www.w3.org/1999/xlink" xmlns:svgjs="http://svgjs.dev/svgjs" width="1000" height="1000" viewBox="0 0 1000 1000"><rect width="1000" height="1000" fill="#ffffff"></rect><g transform="matrix(0.7,0,0,0.7,149.57575757575756,282.1265587044535)"><svg viewBox="0 0 396 247" data-background-color="#ffffff" preserveAspectRatio="xMidYMid meet" height="623" width="1000" xmlns="http://www.w3.org/2000/svg" xmlns:xlink="http://www.w3.org/1999/xlink"><g id="tight-bounds" transform="matrix(1,0,0,1,0.2400000000000091,-0.09999999999999432)"><svg viewBox="0 0 395.52 247.2" height="247.2" width="395.52"><g><svg></svg></g><g><svg viewBox="0 0 395.52 247.2" height="247.2" width="395.52"><g transform="matrix(1,0,0,1,127.050904584,56.01801671999999)"><svg viewBox="0 0 141.418190832 135.16396656" height="135.16396656" width="141.418190832"><g><svg viewBox="0 0 141.418190832 135.16396656" height="135.16396656" width="141.418190832"><g><svg viewBox="0 0 141.418190832 135.16396656" height="135.16396656" width="141.418190832"><g><path d="M0 135.164v-135.164h141.418v135.164z" fill="#570fcf" stroke="transparent" stroke-width="0" rx="0%" data-fill-palette-color="tertiary"></path><path d="M3.156 132.008v-128.852h135.106v128.852z" fill="#ffffff" stroke="transparent" stroke-width="0" rx="0%" data-fill-palette-color="quaternary"></path><path d="M9.469 125.695v-116.226h122.48v116.226z" fill="#570fcf" stroke="transparent" stroke-width="0" data-fill-palette-color="tertiary"></path></g><g transform="matrix(1,0,0,1,18.938016719999993,18.93801672)" id="textblocktransform"><svg viewBox="0 0 103.54215739200001 97.28793312" height="97.28793312" width="103.54215739200001" id="textblock"><g><svg viewBox="0 0 103.54215739200001 97.28793312" height="97.28793312" width="103.54215739200001"><g transform="matrix(1,0,0,1,0,0)"><svg width="103.54215739200001" viewBox="2.2 -35 37.25 35" height="97.28793312" data-palette-color="#ffffff"><path d="M8.85 0L2.2 0 7.05-35 12.3-35 20.85-19.05 29.35-35 34.6-35 39.45 0 32.8 0 29.45-26.3 31.2-25.95 20.85-7.35 10.45-25.9 12.2-26.25 8.85 0Z" opacity="1" transform="matrix(1,0,0,1,0,0)" fill="#ffffff" class="undefined-text-0" data-fill-palette-color="quaternary" id="text-0"></path></svg></g></svg></g></svg></g></svg></g><g></g></svg></g></svg></g><g></g></svg></g><defs></defs></svg><rect width="395.52" height="247.2" fill="none" stroke="none" visibility="hidden"></rect></g></svg></g></svg>